# xmcd
#
# Track frame offsets:
# 150
# 11785
# 29145
# 44445
# 62595
# 79400
# 95625
# 112910
# 128307
# 148240
# 166772
# 183752
# 201192
# 217745
# 230757
# 245405
# 259477
# 277582
# 295342
# 308872
# 323282
#
# Disc length: 4448 seconds
#
# Revision: 1
# Processed by: cddbd v1.5.2PL0 Copyright (c) Steve Scherf et al.
# Submitted via: Axialis_AX_CDPlayer 2.6
#
DISCID=28115e15
DTITLE=Various Artist - Magic Of Pan - CD4: Welthits and Weltmelodien
DYEAR=1997
DGENRE=New Age
TTITLE0=Die Lerche
TTITLE1=El condor pasa
TTITLE2=Der rote Sarafan
TTITLE3=Tango D-Dur
TTITLE4=Heal The World
TTITLE5=Recuerdos de la Alhambra
TTITLE6=Concierdo de Aranjuez
TTITLE7=Wärmeland
TTITLE8=Indianisches Lied
TTITLE9=Deep River
TTITLE10=Die Sorgen werden vergehen
TTITLE11=Sehnsucht Das Lied der Taiga
TTITLE12=Ballade aus Banat
TTITLE13=Die letzte Rose
TTITLE14=Scarborough Fair
TTITLE15=La Goldenrina
TTITLE16=Half the World
TTITLE17=La Serenata
TTITLE18=Londonderry  Air
TTITLE19=Aloha Oe
TTITLE20=Tanz des Pan
EXTD=Verlag das Beste
EXTT0=
EXTT1=
EXTT2=
EXTT3=
EXTT4=
EXTT5=
EXTT6=
EXTT7=
EXTT8=
EXTT9=
EXTT10=
EXTT11=
EXTT12=
EXTT13=
EXTT14=
EXTT15=
EXTT16=
EXTT17=
EXTT18=
EXTT19=
EXTT20=
PLAYORDER=
